HIERARCHY
ROOT hip
{
	OFFSET 0.000000 0.000000 0.000000 
	CHANNELS 6 Xposition Yposition Zposition Xrotation Zrotation Yrotation
	JOINT abdomen
	{
		OFFSET 0.000000 3.402643 0.000000 
		CHANNELS 3 Xrotation Zrotation Yrotation
		JOINT chest
		{
			OFFSET 0.000000 8.438565 -0.680529 
			CHANNELS 3 Xrotation Zrotation Yrotation
			JOINT neck
			{
				OFFSET 0.000000 10.207942 -0.272212 
				CHANNELS 3 Xrotation Zrotation Yrotation
				JOINT head
				{
					OFFSET 0.000000 3.130431 0.000000 
					CHANNELS 3 Xrotation Zrotation Yrotation
					End Site
					{
						OFFSET 0.000000 3.130435 0.000000 
					}
				}
			}
			JOINT lCollar
			{
				OFFSET 3.470700 6.669187 -0.816635 
				CHANNELS 3 Yrotation Zrotation Xrotation
				JOINT lShldr
				{
					OFFSET 3.198488 0.000000 0.000000 
					CHANNELS 3 Zrotation Yrotation Xrotation
					JOINT lForeArm
					{
						OFFSET 10.139888 0.000000 0.000000 
						CHANNELS 3 Yrotation Zrotation Xrotation
						JOINT lHand
						{
							OFFSET 8.370511 0.000000 0.000000 
							CHANNELS 3 Zrotation Yrotation Xrotation
							End Site
							{
								OFFSET 4.083176 0.000000 0.000000 
							}
						}
					}
				}
			}
			JOINT rCollar
			{
				OFFSET -3.470700 6.669187 -0.816635 
				CHANNELS 3 Yrotation Zrotation Xrotation
				JOINT rShldr
				{
					OFFSET -3.198488 0.000000 0.000000 
					CHANNELS 3 Zrotation Yrotation Xrotation
					JOINT rForeArm
					{
						OFFSET -10.139888 0.000000 0.000000 
						CHANNELS 3 Yrotation Zrotation Xrotation
						JOINT rHand
						{
							OFFSET -8.370511 0.000000 0.000000 
							CHANNELS 3 Zrotation Yrotation Xrotation
							End Site
							{
								OFFSET -4.083176 0.000000 0.000000 
							}
						}
					}
				}
			}
		}
	}
	JOINT lThigh
	{
		OFFSET 5.308129 -1.633274 1.361059 
		CHANNELS 3 Xrotation Zrotation Yrotation
		JOINT lShin
		{
			OFFSET -2.041588 -20.007561 0.000000 
			CHANNELS 3 Xrotation Zrotation Yrotation
			JOINT lFoot
			{
				OFFSET 0.000000 -19.190928 -1.224953 
				CHANNELS 3 Xrotation Yrotation Zrotation
				End Site
				{
					OFFSET 0.000000 -2.449906 4.627600 
				}
			}
		}
	}
	JOINT rThigh
	{
		OFFSET -5.308129 -1.633274 1.361059 
		CHANNELS 3 Xrotation Zrotation Yrotation
		JOINT rShin
		{
			OFFSET 2.041588 -20.007561 0.000000 
			CHANNELS 3 Xrotation Zrotation Yrotation
			JOINT rFoot
			{
				OFFSET 0.000000 -19.190928 -1.224953 
				CHANNELS 3 Xrotation Yrotation Zrotation
				End Site
				{
					OFFSET 0.000000 -2.449906 4.627600 
				}
			}
		}
	}
}
MOTION
Frames: 8
Frame Time: 0.033333
7.611476 51.270634 -11.796444 2.750931 -2.334764 -31.718967 0.000000 0.000000 0.000000 1.688719 -0.068355 0.615234 6.593220 -0.767372 -5.918614 15.038127 6.289634 -7.103421 -3.661912 -1.413680 2.086331 -67.334808 -2.256116 16.687170 -35.691059 -10.452875 19.794634 -0.791918 4.158771 -3.515177 6.985921 7.772298 1.729875 68.077965 -19.934162 4.128239 46.793858 5.855245 21.819895 -9.063351 -7.926725 -3.211679 1.551884 9.157625 8.219939 8.387804 -3.306388 6.051658 -9.841536 0.359538 -3.875845 -5.917770 -8.212340 -4.946860 12.685178 1.699238 -4.019196 0.924676 0.050741 9.907695 
7.289567 51.271416 -11.906876 2.800642 -2.334746 -31.386522 0.000000 0.000000 0.000000 1.560907 -0.107410 0.849608 6.476401 -0.923390 -5.547726 15.379605 6.310476 -6.995585 -3.285166 -1.647198 1.970231 -66.807137 -2.858598 15.596821 -35.887810 -9.826536 20.721575 -0.951469 4.530650 -3.521285 7.200641 7.551169 1.630540 68.894447 -21.567066 3.265057 45.970917 5.763406 21.767006 -8.830871 -7.891288 -3.228025 1.678571 9.539007 8.361871 8.055453 -3.247257 5.862862 -9.592245 0.386222 -4.281211 -4.198902 -9.490352 -5.569324 9.355968 1.501664 -3.362317 2.501728 0.236974 10.945887 
6.877691 51.248314 -12.034103 2.820705 -2.352039 -30.682999 0.000000 0.000000 0.000000 1.482434 -0.107404 1.035154 6.316373 -0.923749 -5.313225 15.515137 6.214322 -6.935218 -3.046999 -1.518056 1.902188 -66.244713 -3.840186 14.998544 -35.850178 -9.540666 20.448338 -0.797760 4.412787 -3.517518 7.359882 7.409889 1.561529 69.725006 -23.150494 2.358502 45.323792 5.654257 21.587925 -8.022743 -7.587702 -3.269724 1.551506 10.026759 8.478748 8.183300 -3.150461 5.323211 -9.536710 0.461150 -4.762467 -3.241294 -10.718116 -6.141972 7.539669 1.287035 -2.071475 3.016037 0.271357 10.886704 
6.437579 51.177132 -12.252532 2.797117 -2.405327 -30.224957 0.000000 0.000000 0.000000 1.649647 -0.029287 1.455078 6.186636 -0.963217 -4.932419 15.508414 6.145824 -6.982715 -2.543552 -1.274329 2.068812 -65.662018 -5.391607 14.398454 -35.538029 -9.407980 19.055056 -0.779864 3.494324 -3.497788 7.734774 7.295075 1.714936 70.376480 -24.259464 2.063414 44.718777 5.575050 22.987114 -8.207050 -7.601032 -3.264370 0.965050 10.658733 8.524991 9.334340 -2.957380 4.898261 -9.934613 0.507463 -5.414492 -2.812393 -11.745296 -6.236012 6.288465 0.781276 -0.903288 3.436806 0.332993 10.902202 
5.900063 51.087158 -12.491904 2.753694 -2.091914 -29.464937 0.000000 0.000000 0.000000 1.694266 -0.156172 1.816399 5.972759 -1.002339 -4.795724 15.558659 5.689528 -7.036025 -2.240503 -1.255170 2.108294 -64.566216 -6.992501 14.759993 -35.164162 -9.695453 18.402426 0.763473 3.334373 -3.494542 7.891840 7.356863 1.773055 70.574570 -25.321856 1.612396 44.754471 5.501686 22.689987 -7.366398 -7.757924 -3.288150 0.409428 11.161194 8.546304 9.983615 -2.918541 4.020004 -10.100457 0.554771 -6.074546 -2.196869 -12.836952 -6.299839 4.560402 0.096696 0.585946 3.312082 0.330656 10.771999 
5.256105 50.994648 -12.767170 2.715808 -1.814497 -28.795364 0.000000 0.000000 0.000000 1.807540 -0.234207 2.167951 5.930718 -1.012382 -4.580915 15.108206 5.465453 -7.131345 -1.911437 -1.373443 2.206541 -64.169487 -8.024583 13.470936 -34.970486 -9.050937 19.271475 0.431669 3.489967 -3.492314 8.169871 7.344875 1.898906 70.727959 -25.842157 1.390445 44.783424 5.455876 22.579521 -7.113292 -7.887592 -3.293393 0.116310 11.833107 8.751809 10.331025 -2.907799 3.052823 -10.139906 0.627518 -6.796312 -1.474563 -13.779783 -6.571206 2.445912 -0.145935 2.330162 2.962304 0.298865 10.309378 
4.521218 50.901894 -13.022823 2.595842 -1.319358 -27.996399 0.000000 0.000000 0.000000 1.830971 -0.380574 2.216813 5.875875 -1.236620 -4.376087 15.123834 5.408344 -7.042937 -1.886632 -1.763402 2.206851 -63.254021 -8.685174 12.665577 -34.386425 -8.892309 18.745913 -0.089897 4.182014 -3.502937 8.314585 6.974370 1.935415 70.861420 -25.947420 1.393371 44.616207 5.446577 22.649052 -6.960745 -7.837555 -3.300685 0.165885 12.187063 8.758648 9.826306 -2.732893 2.628903 -9.711987 0.695274 -7.791980 -1.543365 -14.827932 -6.671476 1.909210 -0.448953 4.128919 1.605806 0.158631 10.650666 
3.649389 50.774063 -13.382625 2.769207 -0.858310 -27.405739 0.000000 0.000000 0.000000 1.769362 -0.439095 2.314460 5.695142 -1.383150 -4.112721 15.089361 5.245216 -6.893485 -1.744148 -1.951822 2.158571 -62.666542 -8.877203 11.482656 -34.524975 -8.511403 17.788301 -0.202891 3.636984 -3.501433 8.453755 6.748407 1.895273 70.737709 -25.697823 1.166871 45.150719 5.423104 21.053514 -6.080008 -8.021490 -3.324823 -0.118144 12.964052 8.938265 9.613877 -2.538451 2.577316 -9.313110 0.802306 -9.079455 -2.187517 -15.314158 -6.407514 1.804047 -0.771497 4.234107 0.623011 0.093047 11.390932 
